PathFileType	4	(X/Y/Z)	C:/Users/opensim2020/Desktop/walking_exp_matlab/subject06_walking12_static.trc	
DataRate	CameraRate	NumFrames	NumMarkers	Units	OrigDataRate	OrigDataStartFrame	OrigNumFrames	
100.00	100.00	4	48	mm	100.00	182	363	
Frame#	Time	LFHD			RFHD			LBHD			RBHD			C7			T10			CLAV			STRN			RBAK			LSHO			LUPA			LELB			LFRM			LWRA			LWRB			LFIN			RSHO			RUPA			RELB			RFRM			RWRA			RWRB			RFIN			LASI			RASI			LPSI			RPSI			LTHI			LKNE			LTIB			LANK			LHEE			LTOE			RTHI			RKNE			RTIB			RANK			RHEE			RTOE			*39			*40			*41			*42			*43			*44			*45			*46			*47			
		X1	Y1	Z1	X2	Y2	Z2	X3	Y3	Z3	X4	Y4	Z4	X5	Y5	Z5	X6	Y6	Z6	X7	Y7	Z7	X8	Y8	Z8	X9	Y9	Z9	X10	Y10	Z10	X11	Y11	Z11	X12	Y12	Z12	X13	Y13	Z13	X14	Y14	Z14	X15	Y15	Z15	X16	Y16	Z16	X17	Y17	Z17	X18	Y18	Z18	X19	Y19	Z19	X20	Y20	Z20	X21	Y21	Z21	X22	Y22	Z22	X23	Y23	Z23	X24	Y24	Z24	X25	Y25	Z25	X26	Y26	Z26	X27	Y27	Z27	X28	Y28	Z28	X29	Y29	Z29	X30	Y30	Z30	X31	Y31	Z31	X32	Y32	Z32	X33	Y33	Z33	X34	Y34	Z34	X35	Y35	Z35	X36	Y36	Z36	X37	Y37	Z37	X38	Y38	Z38	X39	Y39	Z39	X40	Y40	Z40	X41	Y41	Z41	X42	Y42	Z42	X43	Y43	Z43	X44	Y44	Z44	X45	Y45	Z45	X46	Y46	Z46	X47	Y47	Z47	X48	Y48	Z48	

182	1.810	397.26169	-657.95233	1678.88208	413.09821	-527.15912	1665.91968	528.14026	-674.56757	1619.47913	541.90936	-545.70465	1612.72656	530.22565	-614.14166	1460.05115	556.46405	-599.81580	1133.00903	417.18872	-605.40973	1388.53345	372.32132	-608.12726	1214.79004	602.65649	-531.78638	1289.43860	465.30420	-770.50531	1415.86841	446.07947	-845.72333	1215.36877	433.35413	-863.15192	1104.77100	377.79254	-893.73456	966.66656	291.40558	-858.93933	867.74994	349.46643	-896.22748	850.66406	288.93875	-902.03400	782.77460	473.58661	-449.44684	1419.81433	477.88187	-349.70663	1225.86316	441.23572	-319.33630	1113.48218	411.93237	-281.91370	1001.53607	333.69861	-280.80359	867.18353	392.04358	-247.89793	868.57617	347.33374	-227.82921	799.75476	379.83594	-700.12756	973.77783	383.78766	-480.99103	981.30292	535.86078	-675.75226	1004.99011	532.44946	-509.57257	1011.26318	481.42545	-779.23248	666.63684	500.54752	-769.12811	503.45813	544.94403	-794.26343	252.62788	543.25665	-771.44043	74.96474	582.89801	-729.58917	56.28675	395.26636	-770.39294	39.19481	478.60904	-412.28214	650.68823	493.49530	-428.14713	525.68671	562.15790	-406.78452	269.60526	575.05035	-436.27405	78.57301	612.89819	-479.41455	51.23820	418.52350	-431.75174	35.85182	505.43658	-610.88116	1713.18103																								 
183	1.820	397.30215	-657.87946	1678.87000	413.15463	-527.08893	1665.91211	528.17847	-674.52710	1619.48303	541.97211	-545.68353	1612.72473	530.28278	-614.11676	1460.05151	556.50623	-599.83313	1132.99255	417.23755	-605.36206	1388.52258	372.34842	-608.09723	1214.82190	602.70502	-531.83417	1289.46179	465.33878	-770.46515	1415.89197	446.07520	-845.67877	1215.39001	433.37366	-863.11902	1104.80469	377.90427	-893.78131	966.66815	291.47574	-858.84790	867.73138	349.53522	-896.13879	850.66797	289.03625	-901.98798	782.76532	473.68094	-449.43668	1419.80591	477.98087	-349.69406	1225.83533	441.34668	-319.58939	1113.30835	411.93576	-281.90887	1001.52802	333.68546	-280.80710	867.18744	392.03531	-247.92450	868.56866	347.31522	-227.88890	799.78149	379.85037	-700.13776	973.77710	383.79254	-481.03638	981.25635	535.86761	-675.75037	1004.97717	532.45685	-509.57266	1011.27405	481.46988	-779.25787	666.66217	500.60068	-769.17401	503.48227	544.97406	-794.30182	252.64827	543.25031	-771.43146	74.95159	582.87982	-729.56146	56.25439	395.29230	-770.40179	39.18547	478.62152	-412.26370	650.71820	493.47977	-428.09137	525.65521	562.16205	-406.79675	269.59369	575.02740	-436.24557	78.59726	612.90839	-479.42596	51.24629	418.50684	-431.78235	35.87447	505.38489	-610.73444	1713.20911																								 
184	1.830	397.33646	-657.85345	1678.85339	413.17261	-527.05231	1665.91345	528.27802	-674.50244	1619.50403	542.03619	-545.65015	1612.71472	530.33801	-614.13770	1460.05029	556.56195	-599.85687	1132.96387	417.29218	-605.34229	1388.54236	372.35519	-608.08630	1214.83899	602.71674	-531.79449	1289.41638	465.38577	-770.46863	1415.92151	446.05087	-845.63379	1215.41699	433.39340	-863.03418	1104.81079	377.90625	-893.65900	966.72571	291.54126	-858.78833	867.71423	349.62210	-896.08887	850.66876	289.09964	-901.89935	782.70898	473.76062	-449.40744	1419.80737	478.13922	-349.90845	1225.77283	441.38806	-319.59607	1113.30652	411.96887	-281.91519	1001.53735	333.64478	-280.83142	867.19733	391.98163	-247.92265	868.55396	347.28140	-227.91000	799.76965	379.88068	-700.12994	973.76282	383.80908	-481.00717	981.26624	535.86609	-675.76099	1004.97662	532.48633	-509.59140	1011.26477	481.51047	-779.31848	666.66479	500.61588	-769.18488	503.48517	544.96619	-794.33472	252.62965	543.25098	-771.45911	74.95720	582.89148	-729.56183	56.25098	395.28290	-770.42163	39.20700	478.61234	-412.30945	650.68140	493.49765	-428.08383	525.68103	562.17114	-406.83435	269.58127	575.04474	-436.28976	78.59651	612.91357	-479.45651	51.23997	418.49194	-431.81387	35.89713	505.51999	-610.78882	1713.19067																								 
185	1.840	397.36032	-657.77411	1678.84839	413.25961	-527.00482	1665.87939	528.35297	-674.47571	1619.52185	542.08398	-545.61450	1612.75220	530.41022	-614.11646	1460.05872	556.60016	-599.84003	1132.95056	417.34918	-605.37415	1388.57813	372.35580	-608.06396	1214.90710	602.77985	-531.79352	1289.40869	465.44193	-770.44305	1415.95386	446.07907	-845.60858	1215.45178	433.41446	-862.99420	1104.85425	378.03928	-893.66693	966.70581	291.62592	-858.74390	867.72418	349.71329	-896.02155	850.66797	289.22043	-901.89618	782.76270	473.80734	-449.37958	1419.77942	478.19879	-349.92032	1225.72217	441.36948	-319.35889	1113.44641	411.91824	-281.76590	1001.56677	333.65161	-280.88345	867.21637	391.99567	-247.97061	868.54547	347.23758	-227.99086	799.69763	379.89697	-700.10034	973.74634	383.62094	-480.90689	981.31885	535.89313	-675.77496	1004.97113	532.50555	-509.59958	1011.24860	481.48984	-779.24475	666.63458	500.62659	-769.18250	503.48209	544.97882	-794.34674	252.67645	543.25684	-771.48938	74.98217	582.96613	-729.53986	56.28339	395.28162	-770.42206	39.18651	478.61810	-412.30124	650.69592	493.49490	-428.10059	525.66248	562.15985	-406.81723	269.59790	575.03967	-436.31256	78.55787	612.92053	-479.44388	51.21355	418.50916	-431.76724	35.87717	505.43195	-610.65918	1713.22083																								 
